<svg width="50" height="60" viewBox="0 0 50 60" fill="none" xmlns="http://www.w3.org/2000/svg">
<path fill-rule="evenodd" clip-rule="evenodd" d="M17.3061 8.44652L29.4328 9.43427V3.64895L17.3061 2.43565V8.44652ZM17.3061 16.4845L29.4328 17.1219V11.2405L17.3061 10.3828V16.4845ZM17.3061 27.5431L27.4769 27.6883V23.9494L17.3061 23.7022V27.5431ZM17.3061 32.5257L27.4769 32.4724V29.2983L17.3061 29.2373V32.5257ZM17.3061 37.9291L27.4769 37.6783V34.0835L17.3061 34.2212V37.9291ZM17.3061 43.3324L27.4769 42.8843V39.4998L17.3061 39.8355V43.3324ZM17.3061 48.2571C20.4768 48.0732 24.0107 47.8675 27.4769 47.6613V44.4965L17.3061 45.0297V48.2571ZM30.3082 47.4938C33.1811 47.3221 35.9205 47.1569 38.2787 47.011C41.3654 46.8194 43.1854 46.6999 44.2478 46.6249V24.3578L30.3082 24.0185V47.4938ZM44.2478 12.4995L33.0075 11.7045V17.3099L44.2478 17.9005V12.4995ZM44.2478 5.13175L33.0075 4.00633V9.72544L44.2478 10.6417V5.13175ZM43.2718 52.3411C43.6349 52.074 44.0679 51.859 44.5496 51.7125C44.5488 51.0909 44.5378 48.7961 44.4207 48.925C44.2855 49.0744 16.9524 50.6662 16.9524 50.6662L17.079 54.5182C17.4507 54.657 17.7886 54.8386 18.0809 55.0536C18.7936 55.5774 19.2352 56.3027 19.2352 57.1024C19.2352 57.9021 18.7944 58.6273 18.0809 59.1517L18.0777 59.1493C17.3626 59.6749 16.3772 60 15.2944 60C14.2115 60 13.2245 59.6743 12.5079 59.1476C11.7951 58.6233 11.3535 57.8997 11.3535 57.1024C11.3535 56.305 11.7951 55.5821 12.5079 55.0577L12.5134 55.0536C12.757 54.8749 13.0312 54.7197 13.3306 54.592L13.289 54.5896V50.5285L5.02059 48.7545V52.0412C5.39464 52.1701 5.73254 52.3452 6.02094 52.5573V52.5614C6.65902 53.0307 7.05429 53.678 7.05429 54.391C7.05429 55.104 6.65902 55.7555 6.02094 56.2242C5.38285 56.6934 4.50038 56.984 3.52675 56.984C2.55312 56.984 1.67615 56.6929 1.03571 56.2224L1.03335 56.2242C0.395268 55.7549 0 55.1064 0 54.3904C0 53.6745 0.395268 53.026 1.03335 52.5567C1.32175 52.3446 1.65965 52.1695 2.0337 52.0406V5.56997H2.03684C2.03684 5.17335 2.33153 4.7902 2.84467 4.59628L13.7487 0.450186C14.019 0.232833 14.3915 0.0922284 14.8158 0.0582488C15.2307 -0.0460334 15.6771 -0.00678122 16.0417 0.147885L45.8532 3.45211C46.7302 3.54936 47.4374 4.22602 47.4374 4.96127V51.6744C47.9718 51.8209 48.4504 52.0505 48.8456 52.3411V52.3452C49.5584 52.8696 50 53.5931 50 54.3904C50 55.1878 49.5592 55.9154 48.8456 56.4398L48.8433 56.438C48.1274 56.9635 47.1428 57.2887 46.0599 57.2887C44.9771 57.2887 43.9861 56.9641 43.2726 56.4398C42.5591 55.9154 42.1183 55.1907 42.1183 54.391C42.1183 53.5913 42.5591 52.866 43.2718 52.3411ZM13.2882 48.1019V23.7637L5.01981 25.4492V46.3273L13.2882 48.1019ZM13.2882 16.6438V10.3746L5.01981 13.3009V18.9316C6.60008 18.4758 13.2882 16.6438 13.2882 16.6438ZM13.2882 8.43363V2.45908L5.01981 5.60278V11.3594L13.2512 8.44594L13.2882 8.43363Z" fill="#FF8D0C"/>
</svg>
