<svg width="29" height="45" viewBox="0 0 29 45" fill="none" xmlns="http://www.w3.org/2000/svg">
<path d="M14.9937 14.8125C18.9687 14.8125 22.175 18.0187 22.175 21.9937C22.175 25.9687 18.9687 29.1749 14.9937 29.1749C11.0187 29.1749 7.81245 25.9687 7.81245 21.9937C7.81245 18.0187 11.0187 14.8125 14.9937 14.8125ZM14.9937 26.6625C17.5625 26.6625 19.6625 24.5687 19.6625 21.9937C19.6625 19.4187 17.5687 17.325 14.9937 17.325C12.4187 17.325 10.325 19.4187 10.325 21.9937C10.325 24.5687 12.425 26.6625 14.9937 26.6625ZM5.8437 14.5187C5.8437 15.45 6.5937 16.1937 7.5187 16.1937C8.44995 16.1937 9.1937 15.4437 9.1937 14.5187C9.1937 13.5937 8.4437 12.8437 7.5187 12.8437C6.5937 12.8437 5.8437 13.5937 5.8437 14.5187ZM1.08745 16.2187C1.1937 13.975 1.7062 11.9875 3.34995 10.35C4.98745 8.71245 6.97495 8.19995 9.2187 8.08745C11.5312 7.9562 18.4625 7.9562 20.775 8.08745C23.0125 8.1937 25 8.7062 26.6437 10.3437C28.2875 11.9812 28.7937 13.9687 28.9062 16.2125C29.0375 18.525 29.0375 25.4562 28.9062 27.7687C28.8 30.0124 28.2875 32 26.6437 33.6375C25 35.275 23.0187 35.7875 20.775 35.9C18.4625 36.0312 11.5312 36.0312 9.2187 35.9C6.97495 35.7937 4.98745 35.2812 3.34995 33.6375C1.71245 32 1.19995 30.0124 1.08745 27.7687C0.9562 25.4562 0.9562 18.5312 1.08745 16.2187ZM4.07495 30.25C4.56245 31.475 5.5062 32.4187 6.73745 32.9125C8.5812 33.6437 12.9562 33.475 14.9937 33.475C17.0312 33.475 21.4125 33.6375 23.25 32.9125C24.475 32.425 25.4187 31.4812 25.9125 30.25C26.6437 28.4062 26.475 24.0312 26.475 21.9937C26.475 19.9562 26.6375 15.575 25.9125 13.7375C25.425 12.5125 24.4812 11.5687 23.25 11.075C21.4062 10.3437 17.0312 10.5125 14.9937 10.5125C12.9562 10.5125 8.57495 10.35 6.73745 11.075C5.51245 11.5625 4.5687 12.5062 4.07495 13.7375C3.3437 15.5812 3.51245 19.9562 3.51245 21.9937C3.51245 24.0312 3.3437 28.4125 4.07495 30.25Z" fill="white"/>
</svg>
